<svg width="207" height="64" viewBox="0 0 207 64" fill="none" xmlns="http://www.w3.org/2000/svg">
<g id="spotify-1 1">
<path id="Vector" d="M31.992 0C14.3237 0 0 14.3104 0 31.9628C0 49.6172 14.3237 63.9268 31.992 63.9268C49.6611 63.9268 63.984 49.6172 63.984 31.9628C63.984 14.3115 49.6619 0.00152556 31.9916 0.00152556L31.992 0ZM46.6633 46.0996C46.0888 47.0412 44.8609 47.3363 43.9215 46.7626C36.409 42.1751 26.9531 41.1389 15.817 43.6805C14.7439 43.9263 13.6742 43.2542 13.4297 42.1824C13.1841 41.1102 13.8538 40.0415 14.9296 39.7973C27.1162 37.0136 37.5696 38.2118 46.002 43.3599C46.9418 43.9362 47.2402 45.1607 46.6633 46.0996ZM50.5791 37.3976C49.8555 38.5705 48.3206 38.9385 47.1481 38.2182C38.5506 32.9381 25.4406 31.4086 15.2692 34.4934C13.95 34.8915 12.5568 34.1488 12.1564 32.8331C11.7591 31.5151 12.5029 30.1258 13.8198 29.725C25.4384 26.2029 39.882 27.909 49.7573 33.972C50.9302 34.6934 51.3011 36.2274 50.5791 37.3976ZM50.9153 28.335C40.6028 22.2162 23.5927 21.6536 13.7483 24.6387C12.1675 25.1177 10.4958 24.2261 10.0167 22.6467C9.53763 21.0666 10.4293 19.3975 12.0112 18.9173C23.312 15.4898 42.0981 16.152 53.9692 23.1929C55.3911 24.0361 55.8575 25.8708 55.0148 27.2895C54.1743 28.7101 52.3326 29.1785 50.9153 28.335ZM87.0397 29.5075C81.5159 28.1914 80.5326 27.2678 80.5326 25.3269C80.5326 23.4933 82.2605 22.2593 84.83 22.2593C87.3208 22.2593 89.7906 23.1964 92.38 25.1254C92.4583 25.1838 92.5565 25.2071 92.6532 25.1918C92.7498 25.1773 92.8354 25.1242 92.8919 25.0445L95.589 21.246C95.6998 21.0895 95.6696 20.8738 95.5203 20.7544C92.4385 18.2837 88.9681 17.0826 84.9118 17.0826C78.9476 17.0826 74.7816 20.6585 74.7816 25.775C74.7816 31.2617 78.3753 33.2045 84.5856 34.7041C89.8713 35.9205 90.7633 36.9396 90.7633 38.7614C90.7633 40.7801 88.9594 42.0351 86.0564 42.0351C82.8321 42.0351 80.2022 40.95 77.2602 38.4045C77.1873 38.3415 77.0871 38.3129 76.9947 38.3183C76.8973 38.3263 76.8083 38.3713 76.7464 38.4457L73.7223 42.0416C73.5954 42.1908 73.6115 42.4137 73.7582 42.5427C77.1811 45.5958 81.3911 47.2084 85.9341 47.2084C92.3609 47.2084 96.514 43.7 96.514 38.2698C96.5254 33.6858 93.7787 31.1476 87.0512 29.5125L87.0397 29.5075ZM111.054 24.0647C108.268 24.0647 105.983 25.1609 104.099 27.4071V24.8788C104.099 24.6792 103.937 24.5166 103.738 24.5166H98.7916C98.5918 24.5166 98.4302 24.6792 98.4302 24.8788V52.9714C98.4302 53.171 98.5918 53.3336 98.7916 53.3336H103.738C103.937 53.3336 104.099 53.171 104.099 52.9714V44.1038C105.984 46.2168 108.269 47.2492 111.054 47.2492C116.23 47.2492 121.47 43.2683 121.47 35.6583C121.477 28.0464 116.236 24.0643 111.06 24.0643L111.054 24.0647ZM115.718 35.6583C115.718 39.5335 113.329 42.2378 109.908 42.2378C106.526 42.2378 103.975 39.4106 103.975 35.6583C103.975 31.9064 106.526 29.0789 109.908 29.0789C113.274 29.0785 115.718 31.8453 115.718 35.6583ZM134.9 24.0647C128.234 24.0647 123.012 29.193 123.012 35.7411C123.012 42.2179 128.198 47.2924 134.818 47.2924C141.508 47.2924 146.746 42.1812 146.746 35.6583C146.746 29.1578 141.543 24.0647 134.9 24.0647ZM134.9 42.2763C131.354 42.2763 128.681 39.4301 128.681 35.6564C128.681 31.8666 131.262 29.1166 134.818 29.1166C138.387 29.1166 141.078 31.9628 141.078 35.7392C141.078 39.5282 138.48 42.2763 134.9 42.2763ZM160.981 24.5166H155.538V18.957C155.538 18.7578 155.377 18.5952 155.177 18.5952H150.232C150.032 18.5952 149.869 18.7578 149.869 18.957V24.5166H147.491C147.292 24.5166 147.131 24.6792 147.131 24.8788V29.1258C147.131 29.325 147.292 29.488 147.491 29.488H149.869V40.477C149.869 44.9179 152.082 47.1695 156.445 47.1695C158.219 47.1695 159.691 46.8034 161.078 46.0176C161.191 45.9546 161.26 45.8332 161.26 45.7042V41.6599C161.26 41.5351 161.195 41.4171 161.089 41.3519C160.981 41.2843 160.847 41.2809 160.736 41.3355C159.784 41.8145 158.862 42.0355 157.833 42.0355C156.246 42.0355 155.538 41.3156 155.538 39.7022V29.49H160.981C161.181 29.49 161.341 29.3274 161.341 29.1277V24.8811C161.349 24.6815 161.189 24.5189 160.986 24.5189L160.981 24.5166ZM179.945 24.5384V23.8555C179.945 21.8467 180.716 20.9509 182.445 20.9509C183.476 20.9509 184.304 21.1555 185.231 21.4647C185.346 21.5006 185.465 21.4826 185.558 21.4143C185.653 21.3459 185.707 21.2364 185.707 21.1204V16.9562C185.707 16.797 185.605 16.6562 185.451 16.6093C184.471 16.318 183.217 16.0192 181.34 16.0192C176.772 16.0192 174.357 18.5894 174.357 23.4494V24.4952H171.981C171.781 24.4952 171.618 24.6578 171.618 24.857V29.1258C171.618 29.325 171.781 29.488 171.981 29.488H174.357V46.4381C174.357 46.6377 174.518 46.8003 174.718 46.8003H179.664C179.864 46.8003 180.026 46.6377 180.026 46.4381V29.4892H184.644L191.718 46.4351C190.915 48.2157 190.126 48.5699 189.048 48.5699C188.176 48.5699 187.259 48.3099 186.32 47.7969C186.232 47.7485 186.127 47.7404 186.032 47.7698C185.938 47.803 185.858 47.8733 185.818 47.9649L184.142 51.6393C184.062 51.813 184.13 52.0168 184.298 52.1069C186.048 53.0538 187.628 53.458 189.58 53.458C193.232 53.458 195.251 51.7584 197.03 47.1858L205.611 25.033C205.654 24.9216 205.641 24.7956 205.573 24.6968C205.505 24.5986 205.395 24.5395 205.275 24.5395H200.126C199.972 24.5395 199.834 24.6376 199.784 24.7822L194.509 39.835L188.732 24.7723C188.679 24.6322 188.544 24.5395 188.394 24.5395H179.943L179.945 24.5384ZM168.95 24.5166H164.004C163.804 24.5166 163.641 24.6792 163.641 24.8788V46.4381C163.641 46.6378 163.804 46.8004 164.004 46.8004H168.95C169.149 46.8004 169.312 46.6378 169.312 46.4381V24.8803C169.313 24.8327 169.303 24.7855 169.285 24.7415C169.267 24.6975 169.24 24.6575 169.206 24.6238C169.173 24.5902 169.133 24.5635 169.088 24.5454C169.044 24.5272 168.997 24.518 168.949 24.5181L168.95 24.5166ZM166.505 14.7001C164.546 14.7001 162.956 16.2848 162.956 18.2425C162.956 20.2013 164.546 21.788 166.505 21.788C168.464 21.788 170.052 20.2013 170.052 18.2425C170.052 16.2852 168.463 14.7001 166.507 14.7001H166.505Z" fill="white"/>
</g>
</svg>
